<svg width="16" height="15" viewBox="0 0 16 15" fill="none" xmlns="http://www.w3.org/2000/svg">
<path d="M15.1301 1.40915C15.0519 1.23175 14.9229 1.08429 14.7612 0.987212C14.5994 0.890133 14.4129 0.84825 14.2274 0.867372C14.0198 0.869217 13.814 0.908613 13.6192 0.98383C13.5274 1.01927 4.64493 4.57884 1.00021 6.14849C0.864715 6.19457 0.739823 6.26967 0.633454 6.36904C0.527085 6.4684 0.44156 6.58986 0.382299 6.72572C0.33317 6.89303 0.342655 7.07324 0.409043 7.23386C0.47543 7.39448 0.594351 7.52493 0.744357 7.60169C1.85108 8.05443 2.97893 8.44819 4.12357 8.78146C4.32149 9.45995 4.99734 11.8195 5.31595 12.8322C5.3659 12.9673 5.45666 13.0815 5.57434 13.1574C5.69203 13.2333 5.83017 13.2667 5.96765 13.2524H6.04489C6.12944 13.2425 6.20717 13.199 6.26213 13.1309C6.31194 13.0755 6.34254 13.0042 6.34902 12.9284L6.53729 10.0676L7.98553 11.2068C9.11998 12.0929 10.4668 13.1461 11.2247 13.7385C11.4454 13.9223 11.7156 14.0286 11.9971 14.0423C12.2315 14.0239 12.4535 13.9244 12.6282 13.7595C12.8029 13.5946 12.9205 13.3735 12.9626 13.1309C13.5854 10.5992 14.5074 5.74342 15.0529 2.85729L15.1736 2.22436C15.2492 1.9555 15.2338 1.6675 15.1301 1.40915ZM5.90972 9.37388L5.74076 11.9056C5.33043 10.5283 4.72217 8.40677 4.71735 8.3612L11.664 3.6168C11.8681 3.46256 12.0884 3.33344 12.3206 3.23198C12.5619 3.17628 12.6199 3.27755 12.5764 3.33831C12.2721 3.67614 11.9497 3.99565 11.6109 4.29529L6.07386 9.10552C6.02763 9.13272 5.98848 9.17142 5.95986 9.21821C5.93124 9.26501 5.91402 9.31846 5.90972 9.37388Z" fill="white"/>
</svg>
