<svg width="18" height="18" viewBox="0 0 18 18" fill="none" xmlns="http://www.w3.org/2000/svg">
<path d="M7.07138 12.2143H4.49995C4.15896 12.2143 3.83193 12.3498 3.59081 12.5909C3.34969 12.832 3.21423 13.159 3.21423 13.5C3.21423 13.841 3.34969 14.168 3.59081 14.4091C3.83193 14.6503 4.15896 14.7857 4.49995 14.7857H5.78566C6.12665 14.7857 6.45368 14.6503 6.6948 14.4091C6.93592 14.168 7.07138 13.841 7.07138 13.5V12.2143ZM7.07138 12.2143V4.50001L14.7857 3.21429V10.9286M14.7857 10.9286H12.2142C11.8732 10.9286 11.5462 11.064 11.3051 11.3052C11.064 11.5463 10.9285 11.8733 10.9285 12.2143C10.9285 12.5553 11.064 12.8823 11.3051 13.1234C11.5462 13.3646 11.8732 13.5 12.2142 13.5H13.4999C13.8409 13.5 14.168 13.3646 14.4091 13.1234C14.6502 12.8823 14.7857 12.5553 14.7857 12.2143V10.9286Z" stroke="white" stroke-linecap="round" stroke-linejoin="round"/>
</svg>
