<svg width="18" height="18" viewBox="0 0 18 18" fill="none" xmlns="http://www.w3.org/2000/svg">
<path d="M13.5 7.7143V9.00002C13.5 10.1935 13.0259 11.3381 12.182 12.182C11.3381 13.0259 10.1935 13.5 9 13.5M9 13.5C7.80653 13.5 6.66193 13.0259 5.81802 12.182C4.97411 11.3381 4.5 10.1935 4.5 9.00002V7.7143M9 13.5V16.0714M6.42857 16.0714H11.5714M9 1.92859C8.48851 1.92859 7.99797 2.13178 7.63629 2.49345C7.27462 2.85513 7.07143 3.34567 7.07143 3.85716V9.00002C7.07143 9.51151 7.27462 10.002 7.63629 10.3637C7.99797 10.7254 8.48851 10.9286 9 10.9286C9.51149 10.9286 10.002 10.7254 10.3637 10.3637C10.7254 10.002 10.9286 9.51151 10.9286 9.00002V3.85716C10.9286 3.34567 10.7254 2.85513 10.3637 2.49345C10.002 2.13178 9.51149 1.92859 9 1.92859Z" stroke="#875404" stroke-linecap="round" stroke-linejoin="round"/>
</svg>
