<svg width="18" height="18" viewBox="0 0 18 18" fill="none" xmlns="http://www.w3.org/2000/svg">
<path d="M7.07138 12.2142H4.49995C4.15896 12.2142 3.83193 12.3497 3.59081 12.5908C3.34969 12.8319 3.21423 13.159 3.21423 13.4999C3.21423 13.8409 3.34969 14.168 3.59081 14.4091C3.83193 14.6502 4.15896 14.7857 4.49995 14.7857H5.78566C6.12665 14.7857 6.45368 14.6502 6.6948 14.4091C6.93592 14.168 7.07138 13.8409 7.07138 13.4999V12.2142ZM7.07138 12.2142V4.49995L14.7857 3.21423V10.9285M14.7857 10.9285H12.2142C11.8732 10.9285 11.5462 11.064 11.3051 11.3051C11.064 11.5462 10.9285 11.8732 10.9285 12.2142C10.9285 12.5552 11.064 12.8823 11.3051 13.1234C11.5462 13.3645 11.8732 13.4999 12.2142 13.4999H13.4999C13.8409 13.4999 14.168 13.3645 14.4091 13.1234C14.6502 12.8823 14.7857 12.5552 14.7857 12.2142V10.9285Z" stroke="#875404" stroke-linecap="round" stroke-linejoin="round"/>
</svg>
