<svg width="19" height="14" viewBox="0 0 19 14" fill="none" xmlns="http://www.w3.org/2000/svg">
<path fill-rule="evenodd" clip-rule="evenodd" d="M8.34148 1.904C6.97813 2.352 5.89285 3.024 5.08561 3.92C4.27837 4.816 3.96444 5.97333 4.14383 7.392C4.53848 7.728 5.09457 8.07333 5.81212 8.428C6.52967 8.78267 7.15752 9.05333 7.69568 9.24C7.83919 9.83734 7.83919 10.416 7.69568 10.976C7.55217 11.536 7.31897 12.0307 6.99608 12.46C6.67318 12.8893 6.29647 13.244 5.86594 13.524C5.43541 13.804 5.04076 13.9627 4.68199 14C3.42628 13.888 2.33203 13.4027 1.39922 12.544C0.4664 11.6853 0 10.4533 0 8.848C0 7.91466 0.152477 6.98134 0.457436 6.048C0.762394 5.11466 1.21983 4.24667 1.82974 3.444C2.43966 2.64133 3.21101 1.932 4.14383 1.316C5.07664 0.699997 6.18883 0.261335 7.48042 0L8.34148 1.904Z" fill="#875404"/>
<path fill-rule="evenodd" clip-rule="evenodd" d="M19 1.904C17.6367 2.352 16.5514 3.024 15.7441 3.92C14.9369 4.816 14.623 5.97333 14.8024 7.392C15.197 7.728 15.7531 8.07333 16.4706 8.428C17.1882 8.78267 17.816 9.05333 18.3542 9.24C18.4977 9.83734 18.4977 10.416 18.3542 10.976C18.2107 11.536 17.9775 12.0307 17.6546 12.46C17.3317 12.8893 16.955 13.244 16.5245 13.524C16.0939 13.804 15.6993 13.9627 15.3405 14C14.0848 13.888 12.9906 13.4027 12.0577 12.544C11.1249 11.6853 10.6585 10.4533 10.6585 8.848C10.6585 7.91466 10.811 6.98134 11.116 6.048C11.4209 5.11466 11.8783 4.24667 12.4883 3.444C13.0982 2.64133 13.8695 1.932 14.8024 1.316C15.7352 0.699997 16.8474 0.261335 18.1389 0L19 1.904Z" fill="#875404"/>
</svg>
